<?xml version="1.0" encoding="utf-8"?>
<!-- Generator: Adobe Illustrator 20.0.0, SVG Export Plug-In . SVG Version: 6.00 Build 0)  -->
<svg version="1.1" id="Layer_1" xmlns="http://www.w3.org/2000/svg" xmlns:xlink="http://www.w3.org/1999/xlink" x="0px" y="0px"
	 viewBox="0 0 32 32" style="enable-background:new 0 0 32 32;" xml:space="preserve">
<style type="text/css">
	.st0{fill:#FFFFFF;}
</style>
<path class="st0" d="M17.7,25.7c0-0.3,0-0.5-0.1-0.8c-0.1-0.2-0.1-0.5-0.2-0.7s-0.2-0.4-0.3-0.7c-0.2-0.2-0.3-0.4-0.4-0.6
	s-0.3-0.3-0.5-0.6c-0.2-0.2-0.4-0.4-0.5-0.5s-0.3-0.3-0.6-0.5s-0.5-0.4-0.6-0.4s-0.3-0.2-0.6-0.4c-0.3-0.2-0.5-0.4-0.6-0.4
	c-0.2,0-0.5,0-1,0c-0.7,0-1.4,0-2,0.1c-0.7,0.1-1.4,0.2-2.1,0.5c-0.7,0.2-1.3,0.5-1.9,0.9S5.3,22.4,5,23c-0.3,0.6-0.5,1.3-0.5,2.1
	c0,0.9,0.2,1.7,0.7,2.3C5.7,28.1,6.3,28.6,7,29s1.5,0.7,2.3,0.9s1.6,0.3,2.4,0.3c0.8,0,1.5-0.1,2.2-0.2c0.7-0.2,1.3-0.4,1.9-0.8
	c0.6-0.3,1.1-0.8,1.4-1.4C17.5,27.2,17.7,26.5,17.7,25.7z M15.4,9.1c0-0.8-0.1-1.6-0.3-2.5s-0.5-1.7-0.9-2.5s-0.9-1.5-1.6-2
	c-0.7-0.5-1.5-0.8-2.3-0.8c-1.2,0-2.1,0.4-2.8,1.3s-1,1.9-1,3.2c0,0.6,0.1,1.2,0.2,1.9s0.4,1.3,0.7,2c0.3,0.7,0.7,1.3,1.1,1.8
	c0.4,0.5,0.9,1,1.5,1.3s1.2,0.5,1.9,0.5c1.2,0,2.1-0.4,2.7-1.2C15.1,11.4,15.4,10.4,15.4,9.1z M12.9,0h8.4l-2.6,1.5h-2.6
	c0.9,0.6,1.6,1.4,2.1,2.4S19,6,19,7.1c0,0.9-0.1,1.8-0.4,2.5s-0.7,1.3-1.1,1.8c-0.4,0.4-0.8,0.9-1.3,1.2c-0.4,0.4-0.8,0.8-1.1,1.2
	s-0.4,0.8-0.4,1.3c0,0.3,0.1,0.7,0.3,1c0.2,0.3,0.5,0.6,0.8,0.9c0.3,0.3,0.7,0.6,1.1,0.9s0.8,0.7,1.2,1.1c0.4,0.4,0.8,0.8,1.1,1.3
	c0.3,0.5,0.6,1,0.8,1.6c0.2,0.6,0.3,1.3,0.3,2c0,2.1-0.9,3.9-2.7,5.4c-1.9,1.7-4.6,2.5-8.1,2.5c-0.8,0-1.5-0.1-2.3-0.2
	S5.6,31.3,4.9,31c-0.8-0.3-1.5-0.7-2.1-1.1s-1.1-1-1.5-1.7C1,27.6,0.8,26.9,0.8,26c0-0.8,0.2-1.6,0.7-2.6c0.4-0.8,1-1.5,1.8-2.1
	s1.8-1.1,2.8-1.4s2-0.5,3-0.7C10,19.1,11,19,12,18.9c-0.8-1.1-1.2-2-1.2-2.9c0-0.2,0-0.3,0-0.5c0-0.1,0.1-0.3,0.1-0.4
	c0-0.1,0.1-0.2,0.2-0.4c0.1-0.2,0.1-0.3,0.1-0.4c-0.5,0.1-1,0.1-1.3,0.1c-1.9,0-3.5-0.6-4.9-1.9S3,9.7,3,7.8C3,6,3.6,4.4,4.8,3
	C6,1.7,7.5,0.8,9.3,0.4C10.5,0.1,11.7,0,12.9,0z M32.8,4.9v2.5h-4.9v4.9h-2.5V7.4h-4.9V4.9h4.9V0h2.5v4.9H32.8z"/>
</svg>
